# Blender v3.0.0 OBJ File: 'quarto.blend'
# www.blender.org
mtllib Circle.mtl
o Circle
v -1.921909 0.528379 -2.347774
v -1.921909 0.693597 -2.347774
v -1.838676 0.528379 -2.339576
v -1.838676 0.693597 -2.339576
v -1.758641 0.528379 -2.315297
v -1.758641 0.693597 -2.315297
v -1.684880 0.528379 -2.275871
v -1.684880 0.693597 -2.275871
v -1.620228 0.528379 -2.222814
v -1.620228 0.693597 -2.222814
v -1.567171 0.528379 -2.158162
v -1.567171 0.693597 -2.158162
v -1.527745 0.528379 -2.084402
v -1.527745 0.693597 -2.084402
v -1.503467 0.528379 -2.004367
v -1.503467 0.693597 -2.004367
v -1.495268 0.528379 -1.921134
v -1.495268 0.693597 -1.921134
v -1.503467 0.528379 -1.837900
v -1.503467 0.693597 -1.837900
v -1.527745 0.528379 -1.757865
v -1.527745 0.693597 -1.757865
v -1.567171 0.528379 -1.684105
v -1.567171 0.693597 -1.684105
v -1.620228 0.528379 -1.619453
v -1.620228 0.693597 -1.619453
v -1.684880 0.528379 -1.566395
v -1.684880 0.693597 -1.566395
v -1.758641 0.528379 -1.526969
v -1.758641 0.693597 -1.526969
v -1.838675 0.528379 -1.502691
v -1.838675 0.693597 -1.502691
v -1.921909 0.528379 -1.494493
v -1.921909 0.693597 -1.494493
v -2.005142 0.528379 -1.502691
v -2.005142 0.693597 -1.502691
v -2.085177 0.528379 -1.526969
v -2.085177 0.693597 -1.526969
v -2.158938 0.528379 -1.566395
v -2.158938 0.693597 -1.566395
v -2.223589 0.528379 -1.619453
v -2.223589 0.693597 -1.619453
v -2.276647 0.528379 -1.684105
v -2.276647 0.693597 -1.684105
v -2.316073 0.528379 -1.757865
v -2.316073 0.693597 -1.757865
v -2.340351 0.528379 -1.837900
v -2.340351 0.693597 -1.837900
v -2.348549 0.528379 -1.921134
v -2.348549 0.693597 -1.921134
v -2.340351 0.528379 -2.004367
v -2.340351 0.693597 -2.004367
v -2.316073 0.528379 -2.084402
v -2.316073 0.693597 -2.084402
v -2.276647 0.528379 -2.158162
v -2.276647 0.693597 -2.158162
v -2.223589 0.528379 -2.222814
v -2.223589 0.693597 -2.222814
v -2.158938 0.528379 -2.275871
v -2.158938 0.693597 -2.275871
v -2.085177 0.528379 -2.315297
v -2.085177 0.693597 -2.315297
v -2.005142 0.528379 -2.339576
v -2.005142 0.693597 -2.339576
v -2.365339 -0.971496 -3.235693
v -2.089813 -0.677039 -3.502692
v -1.540139 -0.965299 -3.102724
v -1.921909 0.528379 -2.439610
v -1.820759 0.528379 -2.429647
v -1.820759 0.693597 -2.429647
v -1.921909 0.693597 -2.439610
v -1.723496 0.528379 -2.400143
v -1.723496 0.693597 -2.400143
v -1.633859 0.528379 -2.352231
v -1.633859 0.693597 -2.352231
v -1.555290 0.528379 -2.287752
v -1.555290 0.693597 -2.287752
v -1.490811 0.528379 -2.209184
v -1.490811 0.693597 -2.209184
v -1.442899 0.528379 -2.119546
v -1.442899 0.693597 -2.119546
v -1.413394 0.528379 -2.022283
v -1.413394 0.693597 -2.022283
v -1.403432 0.528379 -1.921134
v -1.403432 0.693597 -1.921134
v -1.413394 0.528379 -1.819984
v -1.413394 0.693597 -1.819984
v -1.442899 0.528379 -1.722721
v -1.442899 0.693597 -1.722721
v -1.490811 0.528379 -1.633083
v -1.490811 0.693597 -1.633083
v -1.555290 0.528379 -1.554515
v -1.555290 0.693597 -1.554515
v -1.633859 0.528379 -1.490036
v -1.633859 0.693597 -1.490036
v -1.723496 0.528379 -1.442123
v -1.723496 0.693597 -1.442123
v -1.820759 0.528379 -1.412619
v -1.820759 0.693597 -1.412619
v -1.921909 0.528379 -1.402657
v -1.921909 0.693597 -1.402657
v -2.023058 0.528379 -1.412619
v -2.023058 0.693597 -1.412619
v -2.120321 0.528379 -1.442123
v -2.120321 0.693597 -1.442123
v -2.209960 0.528379 -1.490036
v -2.209960 0.693597 -1.490036
v -2.288527 0.528379 -1.554515
v -2.288527 0.693597 -1.554515
v -2.353006 0.528379 -1.633083
v -2.353006 0.693597 -1.633083
v -2.400919 0.528379 -1.722721
v -2.400919 0.693597 -1.722721
v -2.430423 0.528379 -1.819983
v -2.430423 0.693597 -1.819983
v -2.440386 0.528379 -1.921134
v -2.440386 0.693597 -1.921134
v -2.430423 0.528379 -2.022283
v -2.430423 0.693597 -2.022283
v -2.400919 0.528379 -2.119546
v -2.400919 0.693597 -2.119546
v -2.353006 0.528379 -2.209184
v -2.353006 0.693597 -2.209184
v -2.288527 0.528379 -2.287752
v -2.288527 0.693597 -2.287752
v -2.209960 0.528379 -2.352231
v -2.209960 0.693597 -2.352231
v -2.120321 0.528379 -2.400143
v -2.120321 0.693597 -2.400143
v -2.023058 0.528379 -2.429647
v -2.023058 0.693597 -2.429647
vt 1.000000 1.000000
vt 0.968750 0.500000
vt 1.000000 0.500000
vt 0.968750 1.000000
vt 0.937500 0.500000
vt 0.937500 1.000000
vt 0.906250 0.500000
vt 0.906250 1.000000
vt 0.875000 0.500000
vt 0.875000 1.000000
vt 0.843750 0.500000
vt 0.843750 1.000000
vt 0.812500 0.500000
vt 0.812500 1.000000
vt 0.781250 0.500000
vt 0.781250 1.000000
vt 0.750000 0.500000
vt 0.750000 1.000000
vt 0.718750 0.500000
vt 0.718750 1.000000
vt 0.687500 0.500000
vt 0.687500 1.000000
vt 0.656250 0.500000
vt 0.656250 1.000000
vt 0.625000 0.500000
vt 0.625000 1.000000
vt 0.593750 0.500000
vt 0.593750 1.000000
vt 0.562500 0.500000
vt 0.562500 1.000000
vt 0.531250 0.500000
vt 0.531250 1.000000
vt 0.500000 0.500000
vt 0.500000 1.000000
vt 0.468750 0.500000
vt 0.468750 1.000000
vt 0.437500 0.500000
vt 0.437500 1.000000
vt 0.406250 0.500000
vt 0.406250 1.000000
vt 0.375000 0.500000
vt 0.375000 1.000000
vt 0.343750 0.500000
vt 0.343750 1.000000
vt 0.312500 0.500000
vt 0.312500 1.000000
vt 0.281250 0.500000
vt 0.281250 1.000000
vt 0.250000 0.500000
vt 0.250000 1.000000
vt 0.218750 0.500000
vt 0.218750 1.000000
vt 0.187500 0.500000
vt 0.187500 1.000000
vt 0.156250 0.500000
vt 0.156250 1.000000
vt 0.125000 0.500000
vt 0.125000 1.000000
vt 0.093750 0.500000
vt 0.093750 1.000000
vt 0.062500 0.500000
vt 0.062500 1.000000
vt 0.031250 0.500000
vt 0.031250 1.000000
vt 0.000000 0.500000
vt 0.750000 0.447489
vt 0.796822 0.485388
vt 0.788528 0.443695
vt 0.250000 0.447490
vt 0.296822 0.485388
vt 0.250000 0.490000
vt 0.825576 0.432456
vt 0.841844 0.471731
vt 0.325576 0.432456
vt 0.288528 0.443695
vt 0.883337 0.449553
vt 0.859719 0.414206
vt 0.383337 0.449553
vt 0.341844 0.471731
vt 0.889646 0.389646
vt 0.919706 0.419706
vt 0.389646 0.389646
vt 0.359719 0.414206
vt 0.949553 0.383337
vt 0.914206 0.359719
vt 0.449553 0.383337
vt 0.419706 0.419706
vt 0.932456 0.325576
vt 0.971731 0.341844
vt 0.432456 0.325576
vt 0.414206 0.359719
vt 0.985388 0.296822
vt 0.943694 0.288528
vt 0.443695 0.288528
vt 0.471731 0.341844
vt 0.947489 0.250000
vt 0.990000 0.250000
vt 0.447489 0.250000
vt 0.485388 0.296822
vt 0.985388 0.203178
vt 0.943695 0.211472
vt 0.485388 0.203178
vt 0.490000 0.250000
vt 0.932456 0.174424
vt 0.971731 0.158156
vt 0.432456 0.174424
vt 0.443695 0.211472
vt 0.949553 0.116663
vt 0.914206 0.140281
vt 0.449553 0.116663
vt 0.471731 0.158156
vt 0.889646 0.110354
vt 0.919706 0.080294
vt 0.389646 0.110354
vt 0.414206 0.140281
vt 0.883337 0.050447
vt 0.859719 0.085794
vt 0.383337 0.050447
vt 0.419706 0.080294
vt 0.825576 0.067544
vt 0.841844 0.028269
vt 0.325576 0.067544
vt 0.359719 0.085794
vt 0.796822 0.014612
vt 0.788528 0.056305
vt 0.296822 0.014612
vt 0.341844 0.028269
vt 0.750000 0.010000
vt 0.750000 0.052511
vt 0.288528 0.056305
vt 0.250000 0.010000
vt 0.711472 0.056305
vt 0.703178 0.014612
vt 0.211472 0.056305
vt 0.250000 0.052511
vt 0.674424 0.067544
vt 0.658156 0.028269
vt 0.174424 0.067544
vt 0.203178 0.014612
vt 0.616663 0.050447
vt 0.640281 0.085794
vt 0.116663 0.050447
vt 0.158156 0.028269
vt 0.610354 0.110354
vt 0.580294 0.080294
vt 0.110354 0.110354
vt 0.140281 0.085794
vt 0.550447 0.116663
vt 0.585794 0.140281
vt 0.050447 0.116663
vt 0.080294 0.080294
vt 0.567544 0.174424
vt 0.528269 0.158156
vt 0.067544 0.174424
vt 0.085794 0.140281
vt 0.556305 0.211472
vt 0.514612 0.203178
vt 0.056305 0.211472
vt 0.028269 0.158156
vt 0.552511 0.250000
vt 0.510000 0.250000
vt 0.052511 0.250000
vt 0.014612 0.203178
vt 0.514612 0.296822
vt 0.556305 0.288528
vt 0.014612 0.296822
vt 0.010000 0.250000
vt 0.528269 0.341844
vt 0.567544 0.325576
vt 0.056305 0.288528
vt 0.028269 0.341844
vt 0.550447 0.383337
vt 0.585794 0.359719
vt 0.067544 0.325576
vt 0.050447 0.383337
vt 0.610354 0.389646
vt 0.580294 0.419706
vt 0.110354 0.389646
vt 0.085794 0.359719
vt 0.616663 0.449553
vt 0.640281 0.414206
vt 0.116663 0.449553
vt 0.080294 0.419706
vt 0.674424 0.432456
vt 0.658156 0.471731
vt 0.174424 0.432456
vt 0.140281 0.414206
vt 0.703178 0.485388
vt 0.711472 0.443694
vt 0.203178 0.485388
vt 0.158156 0.471731
vt 0.750000 0.490000
vt 0.211472 0.443695
vt 0.000000 1.000000
vn 0.0980 0.0000 -0.9952
vn 0.2903 0.0000 -0.9569
vn 0.4714 0.0000 -0.8819
vn 0.6344 0.0000 -0.7730
vn 0.7730 0.0000 -0.6344
vn 0.8819 0.0000 -0.4714
vn 0.9569 0.0000 -0.2903
vn 0.9952 0.0000 -0.0980
vn 0.9952 0.0000 0.0980
vn 0.9569 0.0000 0.2903
vn 0.8819 0.0000 0.4714
vn 0.7730 0.0000 0.6344
vn 0.6344 0.0000 0.7730
vn 0.4714 0.0000 0.8819
vn 0.2903 0.0000 0.9569
vn 0.0980 0.0000 0.9952
vn -0.0980 0.0000 0.9952
vn -0.2903 0.0000 0.9569
vn -0.4714 0.0000 0.8819
vn -0.6344 0.0000 0.7730
vn -0.7730 0.0000 0.6344
vn -0.8819 0.0000 0.4714
vn -0.9569 0.0000 0.2903
vn -0.9952 0.0000 0.0980
vn -0.9952 0.0000 -0.0980
vn -0.9569 0.0000 -0.2903
vn -0.8819 0.0000 -0.4714
vn -0.7730 0.0000 -0.6344
vn -0.6344 0.0000 -0.7730
vn -0.4714 0.0000 -0.8819
vn -0.2903 0.0000 -0.9569
vn -0.0980 0.0000 -0.9952
vn 0.0000 -1.0000 0.0000
vn 0.0000 1.0000 0.0000
usemtl None
s off
f 71/1/1 69/2/1 68/3/1
f 70/4/2 72/5/2 69/2/2
f 73/6/3 74/7/3 72/5/3
f 75/8/4 76/9/4 74/7/4
f 77/10/5 78/11/5 76/9/5
f 79/12/6 80/13/6 78/11/6
f 81/14/7 82/15/7 80/13/7
f 83/16/8 84/17/8 82/15/8
f 85/18/9 86/19/9 84/17/9
f 87/20/10 88/21/10 86/19/10
f 89/22/11 90/23/11 88/21/11
f 91/24/12 92/25/12 90/23/12
f 93/26/13 94/27/13 92/25/13
f 95/28/14 96/29/14 94/27/14
f 97/30/15 98/31/15 96/29/15
f 99/32/16 100/33/16 98/31/16
f 101/34/17 102/35/17 100/33/17
f 103/36/18 104/37/18 102/35/18
f 105/38/19 106/39/19 104/37/19
f 107/40/20 108/41/20 106/39/20
f 109/42/21 110/43/21 108/41/21
f 111/44/22 112/45/22 110/43/22
f 113/46/23 114/47/23 112/45/23
f 115/48/24 116/49/24 114/47/24
f 117/50/25 118/51/25 116/49/25
f 119/52/26 120/53/26 118/51/26
f 121/54/27 122/55/27 120/53/27
f 123/56/28 124/57/28 122/55/28
f 125/58/29 126/59/29 124/57/29
f 127/60/30 128/61/30 126/59/30
f 129/62/31 130/63/31 128/61/31
f 131/64/32 68/65/32 130/63/32
f 1/66/33 69/67/33 3/68/33
f 2/69/34 70/70/34 71/71/34
f 5/72/33 69/67/33 72/73/33
f 6/74/34 70/70/34 4/75/34
f 5/72/33 74/76/33 7/77/33
f 6/74/34 75/78/34 73/79/34
f 9/80/33 74/76/33 76/81/33
f 10/82/34 75/78/34 8/83/34
f 9/80/33 78/84/33 11/85/33
f 10/82/34 79/86/34 77/87/34
f 13/88/33 78/84/33 80/89/33
f 14/90/34 79/86/34 12/91/34
f 13/88/33 82/92/33 15/93/33
f 16/94/34 81/95/34 14/90/34
f 17/96/33 82/92/33 84/97/33
f 18/98/34 83/99/34 16/94/34
f 17/96/33 86/100/33 19/101/33
f 18/98/34 87/102/34 85/103/34
f 21/104/33 86/100/33 88/105/33
f 22/106/34 87/102/34 20/107/34
f 21/104/33 90/108/33 23/109/33
f 22/106/34 91/110/34 89/111/34
f 25/112/33 90/108/33 92/113/33
f 26/114/34 91/110/34 24/115/34
f 25/112/33 94/116/33 27/117/33
f 26/114/34 95/118/34 93/119/34
f 29/120/33 94/116/33 96/121/33
f 30/122/34 95/118/34 28/123/34
f 29/120/33 98/124/33 31/125/33
f 30/122/34 99/126/34 97/127/34
f 31/125/33 100/128/33 33/129/33
f 32/130/34 101/131/34 99/126/34
f 35/132/33 100/128/33 102/133/33
f 36/134/34 101/131/34 34/135/34
f 37/136/33 102/133/33 104/137/33
f 38/138/34 103/139/34 36/134/34
f 37/136/33 106/140/33 39/141/33
f 38/138/34 107/142/34 105/143/34
f 41/144/33 106/140/33 108/145/33
f 42/146/34 107/142/34 40/147/34
f 41/144/33 110/148/33 43/149/33
f 42/146/34 111/150/34 109/151/34
f 45/152/33 110/148/33 112/153/33
f 46/154/34 111/150/34 44/155/34
f 47/156/33 112/153/33 114/157/33
f 48/158/34 113/159/34 46/154/34
f 49/160/33 114/157/33 116/161/33
f 50/162/34 115/163/34 48/158/34
f 49/160/33 118/164/33 51/165/33
f 50/162/34 119/166/34 117/167/34
f 51/165/33 120/168/33 53/169/33
f 52/170/34 121/171/34 119/166/34
f 53/169/33 122/172/33 55/173/33
f 54/174/34 123/175/34 121/171/34
f 57/176/33 122/172/33 124/177/33
f 58/178/34 123/175/34 56/179/34
f 57/176/33 126/180/33 59/181/33
f 58/178/34 127/182/34 125/183/34
f 61/184/33 126/180/33 128/185/33
f 62/186/34 127/182/34 60/187/34
f 61/184/33 130/188/33 63/189/33
f 62/186/34 131/190/34 129/191/34
f 1/66/33 130/188/33 68/192/33
f 2/69/34 131/190/34 64/193/34
f 71/1/1 70/4/1 69/2/1
f 70/4/2 73/6/2 72/5/2
f 73/6/3 75/8/3 74/7/3
f 75/8/4 77/10/4 76/9/4
f 77/10/5 79/12/5 78/11/5
f 79/12/6 81/14/6 80/13/6
f 81/14/7 83/16/7 82/15/7
f 83/16/8 85/18/8 84/17/8
f 85/18/9 87/20/9 86/19/9
f 87/20/10 89/22/10 88/21/10
f 89/22/11 91/24/11 90/23/11
f 91/24/12 93/26/12 92/25/12
f 93/26/13 95/28/13 94/27/13
f 95/28/14 97/30/14 96/29/14
f 97/30/15 99/32/15 98/31/15
f 99/32/16 101/34/16 100/33/16
f 101/34/17 103/36/17 102/35/17
f 103/36/18 105/38/18 104/37/18
f 105/38/19 107/40/19 106/39/19
f 107/40/20 109/42/20 108/41/20
f 109/42/21 111/44/21 110/43/21
f 111/44/22 113/46/22 112/45/22
f 113/46/23 115/48/23 114/47/23
f 115/48/24 117/50/24 116/49/24
f 117/50/25 119/52/25 118/51/25
f 119/52/26 121/54/26 120/53/26
f 121/54/27 123/56/27 122/55/27
f 123/56/28 125/58/28 124/57/28
f 125/58/29 127/60/29 126/59/29
f 127/60/30 129/62/30 128/61/30
f 129/62/31 131/64/31 130/63/31
f 131/64/32 71/194/32 68/65/32
f 1/66/33 68/192/33 69/67/33
f 2/69/34 4/75/34 70/70/34
f 5/72/33 3/68/33 69/67/33
f 6/74/34 73/79/34 70/70/34
f 5/72/33 72/73/33 74/76/33
f 6/74/34 8/83/34 75/78/34
f 9/80/33 7/77/33 74/76/33
f 10/82/34 77/87/34 75/78/34
f 9/80/33 76/81/33 78/84/33
f 10/82/34 12/91/34 79/86/34
f 13/88/33 11/85/33 78/84/33
f 14/90/34 81/95/34 79/86/34
f 13/88/33 80/89/33 82/92/33
f 16/94/34 83/99/34 81/95/34
f 17/96/33 15/93/33 82/92/33
f 18/98/34 85/103/34 83/99/34
f 17/96/33 84/97/33 86/100/33
f 18/98/34 20/107/34 87/102/34
f 21/104/33 19/101/33 86/100/33
f 22/106/34 89/111/34 87/102/34
f 21/104/33 88/105/33 90/108/33
f 22/106/34 24/115/34 91/110/34
f 25/112/33 23/109/33 90/108/33
f 26/114/34 93/119/34 91/110/34
f 25/112/33 92/113/33 94/116/33
f 26/114/34 28/123/34 95/118/34
f 29/120/33 27/117/33 94/116/33
f 30/122/34 97/127/34 95/118/34
f 29/120/33 96/121/33 98/124/33
f 30/122/34 32/130/34 99/126/34
f 31/125/33 98/124/33 100/128/33
f 32/130/34 34/135/34 101/131/34
f 35/132/33 33/129/33 100/128/33
f 36/134/34 103/139/34 101/131/34
f 37/136/33 35/132/33 102/133/33
f 38/138/34 105/143/34 103/139/34
f 37/136/33 104/137/33 106/140/33
f 38/138/34 40/147/34 107/142/34
f 41/144/33 39/141/33 106/140/33
f 42/146/34 109/151/34 107/142/34
f 41/144/33 108/145/33 110/148/33
f 42/146/34 44/155/34 111/150/34
f 45/152/33 43/149/33 110/148/33
f 46/154/34 113/159/34 111/150/34
f 47/156/33 45/152/33 112/153/33
f 48/158/34 115/163/34 113/159/34
f 49/160/33 47/156/33 114/157/33
f 50/162/34 117/167/34 115/163/34
f 49/160/33 116/161/33 118/164/33
f 50/162/34 52/170/34 119/166/34
f 51/165/33 118/164/33 120/168/33
f 52/170/34 54/174/34 121/171/34
f 53/169/33 120/168/33 122/172/33
f 54/174/34 56/179/34 123/175/34
f 57/176/33 55/173/33 122/172/33
f 58/178/34 125/183/34 123/175/34
f 57/176/33 124/177/33 126/180/33
f 58/178/34 60/187/34 127/182/34
f 61/184/33 59/181/33 126/180/33
f 62/186/34 129/191/34 127/182/34
f 61/184/33 128/185/33 130/188/33
f 62/186/34 64/193/34 131/190/34
f 1/66/33 63/189/33 130/188/33
f 2/69/34 71/71/34 131/190/34
