# Blender v3.0.0 OBJ File: ''
# www.blender.org
mtllib Light_Square_Short_Hollow.mtl
o Light_Square_Short_Hollow
v -1.198252 1.478806 4.765354
v -1.198252 1.153450 4.115354
v -1.198252 1.153450 4.765353
v -1.198252 1.478806 4.115355
v -0.548252 1.153450 4.115354
v -0.548252 1.478806 4.115355
v -0.548252 1.153450 4.765353
v -0.548252 1.478806 4.765354
v -1.198252 0.479574 4.115354
v -0.548252 0.479574 4.115354
v -0.873252 0.479574 4.440353
v -0.548252 1.070478 4.765353
v -1.198252 1.017569 4.765353
v -0.548252 1.017569 4.765353
v -0.548252 1.070478 4.115354
v -0.548252 1.017569 4.115354
v -1.198252 1.070478 4.115354
v -1.198252 1.017569 4.115354
v -1.198252 1.070478 4.765353
v -1.198252 0.964422 4.115354
v -1.198252 0.964422 4.765353
v -0.548252 0.964422 4.115354
v -0.548252 0.964422 4.765353
v -1.198252 0.479574 4.765353
v -0.548252 0.479574 4.765353
v -0.626199 1.086050 4.687407
v -0.626199 1.086050 4.193298
v -1.120307 1.086050 4.687407
v -0.626199 1.137400 4.687407
v -0.626199 1.137400 4.193298
v -1.120307 1.137400 4.193298
v -1.120307 1.086050 4.193298
v -1.120307 1.137400 4.687407
v -1.040282 1.478806 4.273324
v -1.040282 1.478806 4.607383
v -0.706222 1.478806 4.273324
v -0.706222 1.478806 4.607383
v -1.040282 1.215392 4.273324
v -0.706222 1.215392 4.607383
v -0.706222 1.215392 4.273324
v -1.040282 1.215392 4.607383
vt 0.000000 0.000000
vt 0.569801 0.318777
vt 0.382872 0.339882
vt 1.000000 0.032658
vt 0.617129 0.456432
vt 1.000000 0.796314
vt 0.430199 0.477537
vt 0.000000 0.763656
vt 0.125000 0.500000
vt 0.375000 0.500000
vt 0.250000 0.625000
vt 0.500000 0.750000
vt 0.488778 1.000000
vt 0.488778 0.750000
vt 0.500000 0.500000
vt 0.488778 0.500000
vt 0.500000 0.250000
vt 0.488778 0.250000
vt 0.500000 0.000000
vt 0.488778 0.000000
vt 0.477834 0.250000
vt 0.477834 0.000000
vt 0.477834 0.500000
vt 0.477834 0.750000
vt 0.477834 1.000000
vt 0.375000 1.000000
vt 0.375000 0.750000
vt 0.375000 0.250000
vt 0.375000 0.000000
vt 0.509983 0.750000
vt 0.500000 1.000000
vt 0.509983 0.500000
vt 0.509983 0.000000
vt 0.520874 0.750000
vt 0.509983 1.000000
vt 0.520874 0.500000
vt 0.520874 0.250000
vt 0.509983 0.250000
vt 0.520874 0.000000
vt 0.530888 1.000000
vt 0.520874 1.000000
vt 0.530888 0.500000
vt 0.530888 0.250000
vt 0.125000 0.750000
vt 0.814242 0.560758
vt 0.875000 0.750000
vt 0.814242 0.689242
vt 0.685758 0.560758
vt 0.875000 0.500000
vt 0.685758 0.689242
vt 0.625000 0.500000
vt 0.625000 0.750000
vt 0.262716 0.796314
vt 0.000000 0.993351
vt 0.000000 0.796314
vt 0.530888 0.750000
vt 0.530888 0.000000
vt 0.262716 0.993351
vt 0.876599 0.000000
vt 0.000000 1.000000
vt 0.000000 0.000000
vt 0.876599 0.000000
vt 0.000000 1.000000
vt 0.000000 0.000000
vt 0.876599 0.000000
vt 0.000000 1.000000
vt 0.000000 0.000000
vt 0.876599 0.000000
vt 0.000000 1.000000
vt 0.000000 0.000000
vt 0.876599 1.000000
vt 0.876599 1.000000
vt 0.876599 1.000000
vt 0.876599 1.000000
vn -1.0000 0.0000 0.0000
vn 0.0000 0.0000 -1.0000
vn 1.0000 0.0000 0.0000
vn 0.0000 -0.0000 1.0000
vn 0.0000 -1.0000 -0.0000
vn 0.0000 0.9806 0.1959
vn 0.1959 0.9806 0.0000
vn 0.0000 0.9806 -0.1959
vn -0.1959 0.9806 0.0000
vn 0.0000 -0.9795 0.2017
vn 0.2017 -0.9795 0.0000
vn 0.0000 -0.9795 -0.2017
vn -0.2017 -0.9795 0.0000
vn -0.0000 1.0000 0.0000
vn -0.3016 0.9045 0.3014
vn -0.5773 0.5773 -0.5774
vn -0.3017 0.9045 -0.3013
vn 0.3014 0.9045 -0.3016
vn 0.5774 0.5773 0.5773
vn 0.3013 0.9045 0.3017
vn 0.5775 0.5773 -0.5772
vn -0.5773 0.5773 0.5774
usemtl Material.005
s off
f 1/1/1 2/2/1 3/3/1
f 4/4/2 5/5/2 2/2/2
f 6/6/3 7/7/3 5/5/3
f 8/8/4 3/3/4 7/7/4
f 9/9/5 10/10/5 11/11/5
f 12/12/4 13/13/4 14/14/4
f 15/15/3 14/14/3 16/16/3
f 17/17/2 16/16/2 18/18/2
f 19/19/1 18/18/1 13/20/1
f 13/20/1 20/21/1 21/22/1
f 18/18/2 22/23/2 20/21/2
f 16/16/3 23/24/3 22/23/3
f 14/14/4 21/25/4 23/24/4
f 23/24/4 24/26/4 25/27/4
f 22/23/3 25/27/3 10/10/3
f 20/21/2 10/10/2 9/28/2
f 21/22/1 9/28/1 24/29/1
f 26/30/6 19/31/6 12/12/6
f 15/15/7 26/30/7 12/12/7
f 17/17/8 27/32/8 15/15/8
f 28/33/9 17/17/9 19/19/9
f 29/34/4 28/35/4 26/30/4
f 30/36/3 26/30/3 27/32/3
f 31/37/2 27/32/2 32/38/2
f 33/39/1 32/38/1 28/33/1
f 29/34/10 3/40/10 33/41/10
f 5/42/11 29/34/11 30/36/11
f 2/43/12 30/36/12 31/37/12
f 33/39/13 2/43/13 31/37/13
f 25/27/5 24/44/5 11/11/5
f 11/11/5 24/44/5 9/9/5
f 11/11/5 10/10/5 25/27/5
f 34/45/14 1/46/14 35/47/14
f 36/48/14 4/49/14 34/45/14
f 37/50/14 6/51/14 36/48/14
f 35/47/14 8/52/14 37/50/14
f 38/53/14 39/54/14 40/55/14
f 1/1/1 4/4/1 2/2/1
f 4/4/2 6/6/2 5/5/2
f 6/6/3 8/8/3 7/7/3
f 8/8/4 1/1/4 3/3/4
f 12/12/4 19/31/4 13/13/4
f 15/15/3 12/12/3 14/14/3
f 17/17/2 15/15/2 16/16/2
f 19/19/1 17/17/1 18/18/1
f 13/20/1 18/18/1 20/21/1
f 18/18/2 16/16/2 22/23/2
f 16/16/3 14/14/3 23/24/3
f 14/14/4 13/13/4 21/25/4
f 23/24/4 21/25/4 24/26/4
f 22/23/3 23/24/3 25/27/3
f 20/21/2 22/23/2 10/10/2
f 21/22/1 20/21/1 9/28/1
f 26/30/6 28/35/6 19/31/6
f 15/15/7 27/32/7 26/30/7
f 17/17/8 32/38/8 27/32/8
f 28/33/9 32/38/9 17/17/9
f 29/34/4 33/41/4 28/35/4
f 30/36/3 29/34/3 26/30/3
f 31/37/2 30/36/2 27/32/2
f 33/39/1 31/37/1 32/38/1
f 29/34/10 7/56/10 3/40/10
f 5/42/11 7/56/11 29/34/11
f 2/43/12 5/42/12 30/36/12
f 33/39/13 3/57/13 2/43/13
f 34/45/14 4/49/14 1/46/14
f 36/48/14 6/51/14 4/49/14
f 37/50/14 8/52/14 6/51/14
f 35/47/14 1/46/14 8/52/14
f 38/53/14 41/58/14 39/54/14
s 1
f 36/59/15 39/60/16 37/61/17
f 35/62/18 38/63/19 34/64/20
f 37/65/17 41/66/21 35/67/18
f 34/68/20 40/69/22 36/70/15
f 36/59/15 40/71/22 39/60/16
f 35/62/18 41/72/21 38/63/19
f 37/65/17 39/73/16 41/66/21
f 34/68/20 38/74/19 40/69/22
